# xmcd
#
# Track frame offsets: 
#        150
#        14241
#        26753
#        39628
#        53863
#        68432
#        83920
#        96287
#        109277
#        123025
#        136891
#        150938
#        161276
#        174289
#        183749
#        198380
#        212128
#        224638
#        240175
#        252362
#        266571
#        280094
#        294008
#        309526
#        317540
#
# Disc length: 4457 seconds
#
# Revision: 2
# Processed by: cddbd v1.5.2PL0 Copyright (c) Steve Scherf et al.
# Submitted via: ExactAudioCopyFreeDBPlugin 1.0
#
DISCID=5c116719
DTITLE=Billie Holiday - Billie's Blues (Remastered)
DYEAR=2005
DGENRE=Jazz
TTITLE0=Good Morning Heartache
TTITLE1=Summertime
TTITLE2=My Man (Mon Homme)
TTITLE3=Nice Work If You Can Get It
TTITLE4=Loverman (Oh Where Can You Be)
TTITLE5=Blue Moon
TTITLE6=I've Got My Love To Keep Me Warm
TTITLE7=Billie's Blues
TTITLE8=I Cried For You
TTITLE9=Carelessly
TTITLE10=I'll Get By (As Long As I Have You)
TTITLE11=Lover Come Back To Me
TTITLE12=You Go To My Head
TTITLE13=I'm Gonna Lock My Heart Away (And Throw Away The Key)
TTITLE14=These N' That N' Those
TTITLE15=Strange Fruit
TTITLE16=Yesterdays
TTITLE17=Fine And Mellow
TTITLE18=I Got A Right To Sing The Blues
TTITLE19=God Bless This Child
TTITLE20=What A Little Moonlight
TTITLE21=Mean To Me
TTITLE22=Solitude
TTITLE23=Miss Brown To You
TTITLE24=These Foolish Things Remind Me Of You
EXTD=YEAR: 2005
EXTT0=
EXTT1=
EXTT2=
EXTT3=
EXTT4=
EXTT5=
EXTT6=
EXTT7=
EXTT8=
EXTT9=
EXTT10=
EXTT11=
EXTT12=
EXTT13=
EXTT14=
EXTT15=
EXTT16=
EXTT17=
EXTT18=
EXTT19=
EXTT20=
EXTT21=
EXTT22=
EXTT23=
EXTT24=
PLAYORDER=
